# xmcd CD database file
#
# Track frame offsets:
#	150
#	4570
#	8140
#	28758
#	43902
#	54032
#	89785
#	101002
#	112883
#	128311
#	132347
#	149091
#	160531
#	181927
#	198004
#	210817
#	236597
#	248437
#	265481
#
# Disc length: 4063 seconds
#
# Revision: 1
# Processed by: cddbd v1.5.2PL0 Copyright (c) Steve Scherf et al.
# Submitted via: CDex 1.51
#
DISCID=ee0fdd13
DTITLE=Glenn Miller - Sun Valley Serenade and Orchestra Wives
DYEAR=2000
DGENRE=Jazz
TTITLE0=The Kiss Polka
TTITLE1=Moonlight Serenade
TTITLE2=I Know Why
TTITLE3=In The Mood
TTITLE4=It Happened In Sun Valley
TTITLE5=Chattanooga Choo Choo
TTITLE6=Sun Valley Jump
TTITLE7=Measure For Measure
TTITLE8=The Spirit Is Willing
TTITLE9=Moonlight Serenade
TTITLE10=People Like You And Me
TTITLE11=Boom Shot
TTITLE12=At Last
TTITLE13=American Patrol
TTITLE14=Bugle Call Rag
TTITLE15=Serenade In Blue
TTITLE16=That's Sabotage
TTITLE17=Moonlight Sonata
TTITLE18=I've Got A Gal In Kalamazoo
EXTD=YEAR: 2000
EXTT0=
EXTT1=
EXTT2=
EXTT3=
EXTT4=
EXTT5=
EXTT6=
EXTT7=
EXTT8=
EXTT9=
EXTT10=
EXTT11=
EXTT12=
EXTT13=
EXTT14=
EXTT15=
EXTT16=
EXTT17=
EXTT18=
PLAYORDER=
